<svg width="25" height="24" viewBox="0 0 25 24" fill="none" xmlns="http://www.w3.org/2000/svg">
<g clip-path="url(#clip0_1_225)">
<path d="M20.817 4.1556C19.2873 3.45372 17.647 2.93661 15.9319 2.64043C15.9007 2.63472 15.8695 2.649 15.8534 2.67757C15.6424 3.05279 15.4087 3.54229 15.2451 3.92703C13.4004 3.65086 11.5652 3.65086 9.75832 3.92703C9.59465 3.53373 9.35248 3.05279 9.14057 2.67757C9.12448 2.64996 9.09328 2.63567 9.06205 2.64043C7.34791 2.93566 5.70756 3.45278 4.17693 4.1556C4.16368 4.16132 4.15233 4.17085 4.14479 4.18322C1.03339 8.83158 0.18105 13.3657 0.59918 17.8436C0.601072 17.8655 0.61337 17.8864 0.630398 17.8998C2.68321 19.4073 4.67171 20.3225 6.62328 20.9291C6.65451 20.9387 6.68761 20.9272 6.70748 20.9015C7.16913 20.2711 7.58064 19.6064 7.93348 18.9073C7.9543 18.8664 7.93442 18.8178 7.89186 18.8016C7.23913 18.554 6.6176 18.2521 6.01973 17.9093C5.97244 17.8817 5.96865 17.814 6.01216 17.7817C6.13797 17.6874 6.26382 17.5893 6.38396 17.4902C6.40569 17.4722 6.43598 17.4683 6.46153 17.4798C10.3893 19.273 14.6415 19.273 18.523 17.4798C18.5485 17.4674 18.5788 17.4712 18.6015 17.4893C18.7216 17.5883 18.8475 17.6874 18.9742 17.7817C19.0177 17.814 19.0149 17.8817 18.9676 17.9093C18.3697 18.2588 17.7482 18.554 17.0945 18.8007C17.052 18.8169 17.033 18.8664 17.0538 18.9073C17.4143 19.6054 17.8258 20.2701 18.2789 20.9006C18.2978 20.9272 18.3319 20.9387 18.3631 20.9291C20.3241 20.3225 22.3126 19.4073 24.3654 17.8998C24.3834 17.8864 24.3948 17.8664 24.3967 17.8445C24.8971 12.6676 23.5585 8.17067 20.8482 4.18417C20.8416 4.17085 20.8303 4.16132 20.817 4.1556ZM8.52002 15.117C7.3375 15.117 6.36313 14.0314 6.36313 12.6981C6.36313 11.3648 7.3186 10.2792 8.52002 10.2792C9.73087 10.2792 10.6958 11.3743 10.6769 12.6981C10.6769 14.0314 9.72141 15.117 8.52002 15.117ZM16.4947 15.117C15.3123 15.117 14.3379 14.0314 14.3379 12.6981C14.3379 11.3648 15.2933 10.2792 16.4947 10.2792C17.7056 10.2792 18.6705 11.3743 18.6516 12.6981C18.6516 14.0314 17.7056 15.117 16.4947 15.117Z" fill="#5865F2"/>
</g>
<defs>
<clipPath id="clip0_1_225">
<rect width="24" height="24" fill="white" transform="translate(0.5)"/>
</clipPath>
</defs>
</svg>
