<svg width="25" height="24" viewBox="0 0 25 24" fill="none" xmlns="http://www.w3.org/2000/svg">
<g clip-path="url(#clip0_1_230)">
<path fill-rule="evenodd" clip-rule="evenodd" d="M12.5003 0.5C9.65149 0.501478 6.89613 1.51046 4.72687 3.34652C2.55761 5.18259 1.1159 7.72601 0.659545 10.522C0.203186 13.318 0.761927 16.1842 2.23587 18.6082C3.70981 21.0321 6.00284 22.8558 8.70493 23.753C9.30105 23.8636 9.5256 23.4941 9.5256 23.18C9.5256 22.8658 9.51367 21.955 9.5097 20.9592C6.1714 21.6804 5.46599 19.5505 5.46599 19.5505C4.92152 18.1674 4.13464 17.8039 4.13464 17.8039C3.04571 17.065 4.21611 17.0788 4.21611 17.0788C5.42227 17.1637 6.05616 18.3097 6.05616 18.3097C7.12521 20.1333 8.86389 19.6058 9.54745 19.2976C9.65475 18.5251 9.96673 17.9995 10.3105 17.7012C7.64383 17.4008 4.84204 16.3774 4.84204 11.8054C4.82551 10.6197 5.26802 9.47305 6.07801 8.60268C5.95481 8.30236 5.54348 7.08923 6.19524 5.44143C6.19524 5.44143 7.2027 5.12136 9.4958 6.66444C11.4627 6.12962 13.5379 6.12962 15.5047 6.66444C17.7958 5.12136 18.8013 5.44143 18.8013 5.44143C19.4551 7.08528 19.0437 8.29841 18.9205 8.60268C19.7331 9.47319 20.1765 10.6218 20.1585 11.8094C20.1585 16.3912 17.3507 17.4008 14.6801 17.6952C15.1093 18.0667 15.4928 18.7918 15.4928 19.9061C15.4928 21.5026 15.4789 22.7868 15.4789 23.18C15.4789 23.4981 15.6955 23.8695 16.3035 23.753C19.0059 22.8557 21.2992 21.0317 22.7731 18.6073C24.247 16.183 24.8055 13.3163 24.3486 10.5201C23.8917 7.7238 22.4493 5.18035 20.2793 3.34461C18.1094 1.50886 15.3533 0.500541 12.5042 0.5H12.5003Z" fill="#191717"/>
<path d="M8.52783 19.9753C8.52783 20.0721 8.41656 20.1551 8.27349 20.157C8.13042 20.159 8.01318 20.08 8.01318 19.9832C8.01318 19.8864 8.12445 19.8034 8.26752 19.8014C8.41059 19.7994 8.52783 19.8765 8.52783 19.9753Z" fill="#191717"/>
<path d="M9.4419 19.8231C9.45978 19.9199 9.36042 20.0207 9.21735 20.0444C9.07428 20.0681 8.9491 20.0108 8.93121 19.916C8.91333 19.8212 9.01666 19.7184 9.15576 19.6927C9.29485 19.6671 9.42401 19.7263 9.4419 19.8231Z" fill="#191717"/>
<path d="M7.54617 19.9081C7.51637 20.0009 7.38124 20.0424 7.24612 20.0029C7.111 19.9634 7.02158 19.8528 7.04741 19.7579C7.07325 19.6631 7.21036 19.6196 7.34747 19.6631C7.48457 19.7066 7.57201 19.8113 7.54617 19.9081Z" fill="#191717"/>
<path d="M6.64605 19.5208C6.58048 19.5939 6.44735 19.5742 6.33806 19.4754C6.22877 19.3766 6.20293 19.2423 6.2685 19.1711C6.33408 19.1 6.46721 19.1198 6.58048 19.2166C6.69374 19.3134 6.7156 19.4497 6.64605 19.5208Z" fill="#191717"/>
<path d="M6.00425 18.857C5.93072 18.9083 5.80553 18.857 5.73598 18.7542C5.71675 18.7358 5.70146 18.7137 5.69101 18.6893C5.68056 18.6648 5.67517 18.6385 5.67517 18.612C5.67517 18.5854 5.68056 18.5591 5.69101 18.5347C5.70146 18.5102 5.71675 18.4881 5.73598 18.4697C5.8095 18.4203 5.9347 18.4697 6.00425 18.5705C6.07379 18.6712 6.07578 18.8056 6.00425 18.857Z" fill="#191717"/>
<path d="M5.53129 18.1714C5.49014 18.192 5.44306 18.1978 5.39811 18.1877C5.35316 18.1776 5.31314 18.1523 5.28489 18.1161C5.2074 18.0331 5.19149 17.9185 5.2511 17.8671C5.31072 17.8157 5.41803 17.8395 5.49552 17.9224C5.57302 18.0054 5.5909 18.12 5.53129 18.1714Z" fill="#191717"/>
<path d="M5.04444 17.632C5.0186 17.6913 4.92322 17.7091 4.84573 17.6676C4.76823 17.6261 4.71061 17.549 4.73843 17.4878C4.76625 17.4265 4.85964 17.4107 4.93714 17.4522C5.01463 17.4937 5.07424 17.5727 5.04444 17.632Z" fill="#191717"/>
</g>
<defs>
<clipPath id="clip0_1_230">
<rect width="24" height="24" fill="white" transform="translate(0.5)"/>
</clipPath>
</defs>
</svg>
