<svg width="25" height="24" viewBox="0 0 25 24" fill="none" xmlns="http://www.w3.org/2000/svg">
<g clip-path="url(#clip0_1_227)">
<path d="M12.5 24C19.1274 24 24.5 18.6274 24.5 12C24.5 5.37258 19.1274 0 12.5 0C5.87258 0 0.5 5.37258 0.5 12C0.5 18.6274 5.87258 24 12.5 24Z" fill="url(#paint0_linear_1_227)"/>
<path fill-rule="evenodd" clip-rule="evenodd" d="M5.93189 11.8733C9.43014 10.3492 11.7628 9.3444 12.93 8.85893C16.2626 7.47282 16.955 7.23203 17.4064 7.22408C17.5056 7.22234 17.7276 7.24694 17.8714 7.3636C17.9928 7.46211 18.0262 7.59518 18.0422 7.68857C18.0581 7.78197 18.078 7.99473 18.0622 8.16097C17.8816 10.0585 17.1002 14.6631 16.7027 16.7884C16.5345 17.6876 16.2032 17.9891 15.8826 18.0186C15.1857 18.0828 14.6566 17.5581 13.9816 17.1157C12.9255 16.4233 12.3288 15.9924 11.3036 15.3168C10.1188 14.536 10.8869 14.1069 11.5621 13.4056C11.7388 13.2221 14.8092 10.4294 14.8686 10.176C14.876 10.1443 14.8829 10.0262 14.8128 9.96385C14.7426 9.90148 14.639 9.92281 14.5643 9.93977C14.4584 9.96381 12.7712 11.079 9.50264 13.2853C9.02373 13.6142 8.58994 13.7744 8.20129 13.766C7.77283 13.7568 6.94864 13.5238 6.33594 13.3246C5.58444 13.0803 4.98716 12.9512 5.03917 12.5363C5.06626 12.3202 5.36383 12.0992 5.93189 11.8733Z" fill="white"/>
</g>
<defs>
<linearGradient id="paint0_linear_1_227" x1="12.5" y1="0" x2="12.5" y2="23.822" gradientUnits="userSpaceOnUse">
<stop stop-color="#2AABEE"/>
<stop offset="1" stop-color="#229ED9"/>
</linearGradient>
<clipPath id="clip0_1_227">
<rect width="24" height="24" fill="white" transform="translate(0.5)"/>
</clipPath>
</defs>
</svg>
