<svg width="40" height="40" viewBox="0 0 40 40" fill="none" xmlns="http://www.w3.org/2000/svg">
<path d="M38.5759 9.57039C39.0288 8.10964 39.174 6.57091 39.0025 5.05123C38.8311 3.53155 38.3466 2.06388 37.5796 0.740765C37.4496 0.515502 37.2625 0.328452 37.0372 0.198422C36.8119 0.0683919 36.5564 -3.41728e-05 36.2963 2.42432e-05C34.5707 -0.00358765 32.8682 0.396439 31.3248 1.16814C29.7814 1.93985 28.4399 3.06184 27.4074 4.44447H22.963C21.9305 3.06184 20.589 1.93985 19.0456 1.16814C17.5022 0.396439 15.7997 -0.00358765 14.0741 2.42432e-05C13.814 -3.41728e-05 13.5584 0.0683919 13.3331 0.198422C13.1079 0.328452 12.9208 0.515502 12.7907 0.740765C12.0238 2.06388 11.5393 3.53155 11.3678 5.05123C11.1964 6.57091 11.3416 8.10964 11.7944 9.57039C10.8791 11.168 10.3888 12.9737 10.3704 14.8148V16.2963C10.3735 18.803 11.2835 21.2239 12.9323 23.112C14.5811 25 16.8573 26.2278 19.3407 26.5685C18.3271 27.8657 17.7768 29.4649 17.7778 31.1111V32.5926H13.3333C12.1546 32.5926 11.0241 32.1243 10.1906 31.2909C9.35714 30.4574 8.88889 29.3269 8.88889 28.1482C8.88889 27.1754 8.69729 26.2122 8.32503 25.3135C7.95278 24.4148 7.40715 23.5982 6.71931 22.9103C6.03147 22.2225 5.21488 21.6769 4.31617 21.3046C3.41747 20.9324 2.45424 20.7408 1.48148 20.7408C1.08857 20.7408 0.711748 20.8968 0.433916 21.1747C0.156084 21.4525 0 21.8293 0 22.2222C0 22.6151 0.156084 22.992 0.433916 23.2698C0.711748 23.5476 1.08857 23.7037 1.48148 23.7037C2.66022 23.7037 3.79068 24.172 4.62418 25.0055C5.45767 25.839 5.92593 26.9694 5.92593 28.1482C5.92593 30.1127 6.70635 31.9968 8.0955 33.386C9.48466 34.7751 11.3688 35.5556 13.3333 35.5556H17.7778V38.5185C17.7778 38.9114 17.9339 39.2883 18.2117 39.5661C18.4895 39.8439 18.8663 40 19.2593 40C19.6522 40 20.029 39.8439 20.3068 39.5661C20.5847 39.2883 20.7407 38.9114 20.7407 38.5185V31.1111C20.7407 29.9324 21.209 28.8019 22.0425 27.9684C22.876 27.1349 24.0064 26.6667 25.1852 26.6667C26.3639 26.6667 27.4944 27.1349 28.3279 27.9684C29.1614 28.8019 29.6296 29.9324 29.6296 31.1111V38.5185C29.6296 38.9114 29.7857 39.2883 30.0635 39.5661C30.3414 39.8439 30.7182 40 31.1111 40C31.504 40 31.8808 39.8439 32.1587 39.5661C32.4365 39.2883 32.5926 38.9114 32.5926 38.5185V31.1111C32.5935 29.4649 32.0433 27.8657 31.0296 26.5685C33.513 26.2278 35.7893 25 37.4381 23.112C39.0869 21.2239 39.9969 18.803 40 16.2963V14.8148C39.9816 12.9737 39.4912 11.168 38.5759 9.57039ZM37.037 16.2963C37.037 18.2609 36.2566 20.145 34.8675 21.5341C33.4783 22.9233 31.5942 23.7037 29.6296 23.7037H20.7407C18.7762 23.7037 16.8921 22.9233 15.5029 21.5341C14.1138 20.145 13.3333 18.2609 13.3333 16.2963V14.8148C13.3515 13.3334 13.795 11.8884 14.6111 10.6519C14.7632 10.4514 14.8618 10.2154 14.8974 9.96622C14.9331 9.71706 14.9046 9.46292 14.8148 9.2278C14.4289 8.23261 14.2432 7.17105 14.2683 6.10396C14.2934 5.03687 14.5289 3.98522 14.9611 3.00928C16.1735 3.13971 17.3411 3.54135 18.3772 4.18441C19.4133 4.82748 20.2913 5.69549 20.9463 6.72409C21.0798 6.93281 21.2634 7.10472 21.4805 7.22409C21.6976 7.34347 21.9412 7.40651 22.1889 7.40743H28.1796C28.4283 7.40744 28.673 7.34485 28.8911 7.22543C29.1092 7.106 29.2938 6.9336 29.4278 6.72409C30.0826 5.6954 30.9607 4.82732 31.9968 4.18424C33.0329 3.54116 34.2005 3.13958 35.413 3.00928C35.8446 3.98547 36.0794 5.03724 36.1039 6.10433C36.1284 7.17142 35.942 8.23285 35.5556 9.2278C35.466 9.46068 35.4361 9.71223 35.4684 9.95963C35.5007 10.207 35.5943 10.4424 35.7407 10.6445C36.5649 11.881 37.015 13.329 37.037 14.8148V16.2963Z" fill="black"/>
</svg>
