<svg width="31" height="25" viewBox="0 0 31 25" fill="none" xmlns="http://www.w3.org/2000/svg">
<path d="M4.51182 12.0352C4.9356 12.3837 5.27708 12.8217 5.51182 13.3177C6.11182 14.5552 6.11182 16.0677 6.11182 17.5352C6.11182 20.5739 6.23682 22.0352 9.11182 22.0352C9.37703 22.0352 9.63139 22.1405 9.81892 22.328C10.0065 22.5156 10.1118 22.7699 10.1118 23.0352C10.1118 23.3004 10.0065 23.5547 9.81892 23.7423C9.63139 23.9298 9.37703 24.0352 9.11182 24.0352C6.92682 24.0352 5.44682 23.2677 4.71182 21.7527C4.11182 20.5152 4.11182 19.0027 4.11182 17.5352C4.11182 14.4964 3.98682 13.0352 1.11182 13.0352C0.8466 13.0352 0.592246 12.9298 0.40471 12.7423C0.217173 12.5547 0.111816 12.3004 0.111816 12.0352C0.111816 11.7699 0.217173 11.5156 0.40471 11.328C0.592246 11.1405 0.8466 11.0352 1.11182 11.0352C3.98682 11.0352 4.11182 9.57391 4.11182 6.53516C4.11182 5.07016 4.11182 3.55516 4.71182 2.31766C5.44932 0.802656 6.92932 0.0351562 9.11432 0.0351562C9.37953 0.0351562 9.63389 0.140513 9.82142 0.32805C10.009 0.515586 10.1143 0.76994 10.1143 1.03516C10.1143 1.30037 10.009 1.55473 9.82142 1.74226C9.63389 1.9298 9.37953 2.03516 9.11432 2.03516C6.23932 2.03516 6.11432 3.49641 6.11432 6.53516C6.11432 8.00016 6.11432 9.51516 5.51432 10.7527C5.27886 11.2489 4.93651 11.6869 4.51182 12.0352ZM29.1143 11.0352C26.2393 11.0352 26.1143 9.57391 26.1143 6.53516C26.1143 5.07016 26.1143 3.55516 25.5143 2.31766C24.7793 0.802656 23.2993 0.0351562 21.1143 0.0351562C20.8491 0.0351562 20.5947 0.140513 20.4072 0.32805C20.2197 0.515586 20.1143 0.76994 20.1143 1.03516C20.1143 1.30037 20.2197 1.55473 20.4072 1.74226C20.5947 1.9298 20.8491 2.03516 21.1143 2.03516C23.9893 2.03516 24.1143 3.49641 24.1143 6.53516C24.1143 8.00016 24.1143 9.51516 24.7143 10.7527C24.9491 11.2486 25.2905 11.6866 25.7143 12.0352C25.2905 12.3837 24.9491 12.8217 24.7143 13.3177C24.1143 14.5552 24.1143 16.0677 24.1143 17.5352C24.1143 20.5739 23.9893 22.0352 21.1143 22.0352C20.8491 22.0352 20.5947 22.1405 20.4072 22.328C20.2197 22.5156 20.1143 22.7699 20.1143 23.0352C20.1143 23.3004 20.2197 23.5547 20.4072 23.7423C20.5947 23.9298 20.8491 24.0352 21.1143 24.0352C23.2993 24.0352 24.7793 23.2677 25.5143 21.7527C26.1143 20.5152 26.1143 19.0027 26.1143 17.5352C26.1143 14.4964 26.2393 13.0352 29.1143 13.0352C29.3795 13.0352 29.6339 12.9298 29.8214 12.7423C30.009 12.5547 30.1143 12.3004 30.1143 12.0352C30.1143 11.7699 30.009 11.5156 29.8214 11.328C29.6339 11.1405 29.3795 11.0352 29.1143 11.0352Z" fill="#1D4ED8"/>
</svg>
