<svg width="43" height="42" viewBox="0 0 43 42" fill="none" xmlns="http://www.w3.org/2000/svg">
<path d="M37.6382 21C37.6382 21.3481 37.4999 21.6819 37.2538 21.9281C37.0076 22.1742 36.6738 22.3125 36.3257 22.3125H7.45068C7.10259 22.3125 6.76875 22.1742 6.52261 21.9281C6.27646 21.6819 6.13818 21.3481 6.13818 21C6.13818 20.6519 6.27646 20.3181 6.52261 20.0719C6.76875 19.8258 7.10259 19.6875 7.45068 19.6875H36.3257C36.6738 19.6875 37.0076 19.8258 37.2538 20.0719C37.4999 20.3181 37.6382 20.6519 37.6382 21ZM7.45068 11.8125H36.3257C36.6738 11.8125 37.0076 11.6742 37.2538 11.4281C37.4999 11.1819 37.6382 10.8481 37.6382 10.5C37.6382 10.1519 37.4999 9.81806 37.2538 9.57192C37.0076 9.32578 36.6738 9.1875 36.3257 9.1875H7.45068C7.10259 9.1875 6.76875 9.32578 6.52261 9.57192C6.27646 9.81806 6.13818 10.1519 6.13818 10.5C6.13818 10.8481 6.27646 11.1819 6.52261 11.4281C6.76875 11.6742 7.10259 11.8125 7.45068 11.8125ZM36.3257 30.1875H7.45068C7.10259 30.1875 6.76875 30.3258 6.52261 30.5719C6.27646 30.8181 6.13818 31.1519 6.13818 31.5C6.13818 31.8481 6.27646 32.1819 6.52261 32.4281C6.76875 32.6742 7.10259 32.8125 7.45068 32.8125H36.3257C36.6738 32.8125 37.0076 32.6742 37.2538 32.4281C37.4999 32.1819 37.6382 31.8481 37.6382 31.5C37.6382 31.1519 37.4999 30.8181 37.2538 30.5719C37.0076 30.3258 36.6738 30.1875 36.3257 30.1875Z" fill="#1D4ED8"/>
</svg>
